<svg width="126" height="61" fill="none" xmlns="http://www.w3.org/2000/svg"><g clip-path="url(#a)"><path d="M17.288 54.743h-.136a.414.414 0 0 0-.287.107.371.371 0 0 0-.127.268v3.112c0 .654-.205 1.173-.615 1.556-.41.383-.971.575-1.684.575-.84 0-1.484-.188-1.931-.563-.447-.374-.67-.895-.67-1.56v-3.096a.389.389 0 0 0-.216-.351.456.456 0 0 0-.207-.048h-.128v-.08h2.298v.08h-.127a.426.426 0 0 0-.296.108.38.38 0 0 0-.128.275v3.048c0 .564.139 1.011.416 1.34.276.33.656.496 1.14.496.485 0 .868-.156 1.15-.467.282-.311.425-.733.43-1.265v-3.152a.383.383 0 0 0-.215-.335.454.454 0 0 0-.207-.048h-.128v-.08h1.668v.08ZM29.596 54.743a.463.463 0 0 0-.423.24.504.504 0 0 0-.072.239v4.117c0 .357.024.657.072.902l.024.12h-.072l-4.03-3.839v3.168c0 .133.048.246.144.34.095.093.21.139.343.139h.151v.08h-2.418v-.08h.144a.484.484 0 0 0 .495-.487v-4.141c0-.351-.024-.644-.072-.878l-.016-.12h.072l4.03 3.839v-3.153a.492.492 0 0 0-.152-.347.476.476 0 0 0-.343-.14h-.144v-.08h2.419v.08h-.152ZM35.878 60.17c.139 0 .257-.05.355-.148a.514.514 0 0 0 .156-.355v-4.43a.501.501 0 0 0-.156-.35.491.491 0 0 0-.355-.144h-.104v-.08H38.2l-.008.08h-.095a.505.505 0 0 0-.36.143.466.466 0 0 0-.151.352v4.429c0 .138.05.256.152.355.1.098.22.147.359.147h.095l.008.08h-2.426v-.08h.104ZM48.776 54.663h1.708v.08h-.072a.7.7 0 0 0-.367.112.848.848 0 0 0-.303.335l-1.892 4.174c-.244.526-.375.875-.39 1.045h-.073l-2.418-5.21a.884.884 0 0 0-.303-.34.696.696 0 0 0-.375-.116h-.063v-.08h2.537v.08h-.063c-.118 0-.204.036-.26.108a.339.339 0 0 0-.084.203c0 .064.011.128.032.191l1.357 3.296 1.404-3.295a.548.548 0 0 0 .04-.196.334.334 0 0 0-.084-.2c-.055-.071-.142-.107-.259-.107h-.072v-.08ZM56.614 60.17c.139 0 .257-.05.355-.148a.514.514 0 0 0 .156-.355v-4.445c-.01-.139-.05-.24-.12-.303-.128-.117-.258-.176-.39-.176h-.105v-.08h3.057a2.914 2.914 0 0 0 .957-.143v1.396l-.08-.008v-.088c0-.33-.122-.564-.367-.702a.858.858 0 0 0-.415-.112h-1.34v2.323h1.053a.68.68 0 0 0 .487-.204.663.663 0 0 0 .192-.483v-.072h.08v1.844h-.08v-.064a.668.668 0 0 0-.188-.487.667.667 0 0 0-.475-.2h-1.07v2.243h1.046c.388 0 .714-.112.978-.335.263-.224.458-.54.586-.95h.08l-.367 1.628H56.51v-.08h.104ZM69.217 55.014h-.367v4.653a.513.513 0 0 0 .155.354.485.485 0 0 0 .356.148h.103v.08h-2.426v-.08h.104a.485.485 0 0 0 .439-.247.555.555 0 0 0 .072-.248v-4.429a.511.511 0 0 0-.156-.354.483.483 0 0 0-.355-.148h-.104v-.08h2.737c.516 0 .953.112 1.31.335a1.2 1.2 0 0 1 .43.467c.107.2.16.46.16.782s-.112.632-.336.93c-.223.298-.547.468-.974.51.31.101.58.336.815.703.574.92 1 1.468 1.276 1.643.139.085.311.13.519.136v.08h-.782c-.463 0-.847-.061-1.153-.184a1.425 1.425 0 0 1-.722-.646c-.101-.176-.322-.63-.663-1.365-.149-.324-.33-.503-.542-.535v-.08h.247c.24 0 .45-.071.635-.215.183-.143.307-.377.37-.702.022-.112.032-.2.032-.263 0-.436-.087-.751-.263-.946a.897.897 0 0 0-.678-.299h-.24.001ZM79.002 59.507c0-.382.083-.71.248-.981h.071a1.344 1.344 0 0 0 .388 1.09c.263.273.624.41 1.081.41.357 0 .634-.085.834-.255.2-.17.3-.386.3-.646a.646.646 0 0 0-.148-.415c-.099-.123-.263-.258-.491-.407l-1.389-.918c-.516-.346-.774-.772-.774-1.277 0-.053.005-.107.016-.16.032-.42.196-.758.49-1.013.296-.256.691-.383 1.186-.383.292 0 .654.027 1.085.08h.503l-.104 1.173h-.08a.819.819 0 0 0-.307-.667c-.205-.167-.477-.251-.818-.251-.415 0-.715.128-.901.383a.596.596 0 0 0-.144.367c0 .122.024.226.072.311.074.139.236.288.486.447l1.525.99c.478.314.718.723.718 1.229 0 .564-.193.996-.579 1.296-.385.3-.897.451-1.536.451-.362 0-.696-.044-1.001-.132-.306-.087-.53-.206-.674-.355a1.062 1.062 0 0 1-.056-.367ZM88.98 60.17c.138 0 .256-.05.355-.148a.513.513 0 0 0 .155-.355v-4.43a.5.5 0 0 0-.155-.35.492.492 0 0 0-.355-.144h-.104v-.08h2.426l-.008.08h-.096a.505.505 0 0 0-.359.143.466.466 0 0 0-.151.352v4.429c0 .138.05.256.151.355.101.098.22.147.36.147h.095l.008.08h-2.426v-.08h.103ZM100.481 54.99v4.685a.497.497 0 0 0 .156.35.491.491 0 0 0 .355.145h.095l.008.08h-2.426v-.08h.104a.483.483 0 0 0 .347-.144.524.524 0 0 0 .164-.343V54.99h-1.078c-.244.005-.438.082-.582.23a.804.804 0 0 0-.215.584v.095h-.08v-1.388c.218.09.532.138.942.143h3.216c.164 0 .344-.016.538-.048.194-.032.329-.063.403-.095V55.9h-.08v-.095c0-.33-.124-.564-.375-.703a.876.876 0 0 0-.422-.111h-1.07ZM114.56 54.743h-.112a.843.843 0 0 0-.455.136c-.143.09-.258.2-.343.327l-1.572 2.506v1.955c0 .138.051.257.152.355.101.099.22.148.359.148h.096l.007.08h-2.425v-.08h.103a.491.491 0 0 0 .355-.144.5.5 0 0 0 .156-.351v-1.971l-1.524-2.506a.989.989 0 0 0-.34-.323.86.86 0 0 0-.45-.132h-.112v-.08h2.641v.08h-.104a.302.302 0 0 0-.271.16.359.359 0 0 0-.048.17c0 .057.014.112.04.164l1.142 2.075 1.188-2.075a.356.356 0 0 0 .04-.163.282.282 0 0 0-.055-.163c-.064-.112-.155-.168-.272-.168h-.095v-.08h1.899v.08ZM6.638 38.15c2.345 0 4.6.954 4.6 3.648 0 1.628-.97 3.456-3.166 3.675.817.268 1.544 1.036 1.974 1.714.058.094 1.218 1.934 1.947 2.842.834 1.062 1.385 1.452 2.394 1.467v.194h-1.883c-2.116 0-3.655-.458-4.543-2.005-.47-.82-1.343-2.735-1.612-3.314-.376-.807-.808-1.217-1.31-1.303v-.184h.59c1.04-.011 2.098-.542 2.444-2.236.045-.236.087-.547.071-.937-.077-1.85-1.01-2.678-2.281-2.708-.513-.023-1.225-.001-1.467-.007V50.28a1.24 1.24 0 0 0 1.242 1.216h.24l.004.193H.001l.003-.193h.245a1.24 1.24 0 0 0 1.238-1.207V39.557A1.238 1.238 0 0 0 .25 38.342H.003L0 38.15h6.638ZM82.252 44.75c1.15.746 1.819 1.76 1.737 3.207-.118 2.52-2.017 4.004-5.111 4.004-1.735 0-3.36-.447-4.066-1.174-.32-.809-.047-2.44.458-3.284h.17c-.154 2.017 1.328 3.68 3.648 3.643 1.682-.03 2.674-.963 2.673-2.175.001-.784-.507-1.307-1.546-1.997l-3.37-2.237c-1.332-.883-1.993-2.06-1.852-3.47.164-2.004 1.632-3.387 4.072-3.387.622 0 1.75.086 2.634.198h1.215l-.253 2.843h-.187c-.003-1.343-1.09-2.226-2.726-2.226-1.523 0-2.485.822-2.532 1.86-.047.762.537 1.272 1.348 1.799l3.688 2.395ZM125.082 51.691h-8.605l.002-.166h.21c.582 0 1.054-.466 1.065-1.045v-9.266a1.065 1.065 0 0 0-1.062-.992h-.21l-.003-.165h6.371c.717-.006 1.675-.172 1.984-.302v2.906l-.168-.003v-.195c.003-1-.626-1.654-1.623-1.696h-2.796v4.836h2.203c.816-.016 1.412-.615 1.409-1.424v-.144l.163-.002v3.84l-.163-.002v-.144c.003-.802-.583-1.398-1.388-1.423h-2.225v4.676h2.182c1.66 0 2.738-1.031 3.253-2.68h.166l-.765 3.391ZM104.655 50.561c.36.68.928.964 1.418.964h.139v.166h-5.295v-.164h.146c.429 0 .896-.379.642-1.044l-.818-2.053h-3.9l-.85 2.053c-.273.665.207 1.044.636 1.044h.146v.164h-3.563v-.166h.15c.471 0 1.044-.276 1.398-.936l3.843-8.687c.118-.253.777-1.694.817-2.177h.15l4.941 10.836Zm-4.047-2.832-1.625-4.08-1.703 4.08h3.328ZM115.613 42.635l-.168-.002v-.196c.002-1.013-.643-1.67-1.663-1.697h-2.933v9.753a1.065 1.065 0 0 0 1.065 1.032h.21l.003.166h-5.051l.003-.166h.21c.572 0 1.038-.452 1.063-1.018V40.74h-2.934c-1.02.026-1.665.684-1.663 1.697v.195l-.168.003v-2.897c.307.13 1.255.294 1.97.303h8.086c.715-.01 1.663-.173 1.97-.303v2.897ZM95.921 42.635l-.168-.002v-.196c.002-1.013-.643-1.67-1.662-1.697h-2.933v9.753a1.065 1.065 0 0 0 1.064 1.032h.21l.003.166h-5.05l.002-.166h.21c.573 0 1.039-.452 1.064-1.018V40.74h-2.935c-1.02.026-1.665.684-1.663 1.697v.195l-.168.003v-2.897c.307.13 1.255.294 1.97.303h8.086c.715-.01 1.663-.173 1.97-.303v2.897ZM46.01 51.459h-8.606l.003-.166h.21c.582 0 1.054-.467 1.065-1.045v-9.266a1.065 1.065 0 0 0-1.062-.992h-.21l-.003-.165h6.371c.717-.007 1.675-.172 1.984-.303v2.906l-.168-.002v-.196c.002-1-.627-1.653-1.623-1.695h-2.796v4.835h2.203c.816-.015 1.411-.614 1.409-1.424v-.144l.162-.002v3.84l-.162-.001v-.144c.002-.803-.584-1.399-1.388-1.424h-2.225v4.677h2.182c1.66 0 2.737-1.032 3.253-2.68h.166l-.766 3.39ZM52.927 39.824c2.014 0 3.953.82 3.953 3.135 0 1.398-.835 2.97-2.721 3.158.702.23 1.327.89 1.695 1.472.05.08 1.047 1.662 1.674 2.442.716.913 1.19 1.247 2.056 1.26v.167h-1.618c-1.818 0-3.14-.393-3.903-1.723-.404-.704-1.154-2.35-1.385-2.847-.323-.693-.694-1.045-1.125-1.12v-.157h.507c.894-.01 1.803-.466 2.099-1.922a3.41 3.41 0 0 0 .062-.804c-.067-1.59-.87-2.301-1.96-2.328-.441-.018-1.053 0-1.261-.005v9.695a1.065 1.065 0 0 0 1.067 1.044h.208l.002.167h-5.053l.003-.166h.21c.579 0 1.05-.462 1.064-1.038v-9.22a1.063 1.063 0 0 0-1.063-1.044h-.212l-.003-.165h5.704ZM66.018 45.494c.987.642 1.562 1.513 1.492 2.756-.101 2.165-1.733 3.44-4.391 3.44-1.49 0-2.887-.384-3.494-1.009-.275-.694-.04-2.096.394-2.82h.146c-.133 1.732 1.14 3.161 3.134 3.129 1.446-.026 2.298-.827 2.297-1.868 0-.674-.436-1.124-1.329-1.717l-2.896-1.922c-1.143-.758-1.711-1.77-1.59-2.982.141-1.72 1.402-2.91 3.498-2.91.535 0 1.505.075 2.264.171h1.043l-.217 2.443h-.16c-.003-1.154-.938-1.913-2.343-1.913-1.309 0-2.135.706-2.175 1.598-.04.655.461 1.093 1.157 1.546l3.17 2.058Z" fill="#fff"/><path d="M18.595 39.592c-3.992 0-5.708 2.315-5.708 6.05 0 3.734 1.716 6.049 5.708 6.049 3.991 0 5.707-2.315 5.707-6.05 0-3.734-1.716-6.05-5.707-6.05Zm0 11.4c-2.343 0-2.98-2.05-2.98-5.35 0-3.302.636-5.351 2.98-5.351 2.343 0 2.98 2.05 2.98 5.35 0 3.301-.637 5.35-2.98 5.35ZM32.704 45.884v.166h.262c.537 0 .858.272.855.757v2.541c-.392 1.051-1.593 1.643-2.817 1.644h-.131c-2.343 0-2.98-2.05-2.98-5.35 0-3.302.636-5.351 2.98-5.351h.513c1.773.002 3.35.795 3.975 3.053h.138l-.032-2.852c-.977-.497-2.756-.9-4.584-.9l-.01.01v-.01c-3.992 0-5.708 2.315-5.708 6.05 0 3.705 1.692 6.01 5.618 6.046l.003.003.047-.001.04.001v-.003c2.62-.024 4.647-1.14 5.42-2.138v-2.746c-.01-.483.291-.754.828-.754h.25v-.166h-4.667ZM62.922 1.167c-9.256 0-15.268 2.203-15.52 2.296l-.493.184v8.362c0 .174.009 4.373 1.826 9.194 1.083 2.873 2.587 5.403 4.47 7.52.229.268 3.808 4.392 8.943 6.013l.774.224.775-.224c5.134-1.62 8.712-5.743 8.943-6.013 1.883-2.117 3.387-4.647 4.47-7.52 1.817-4.82 1.826-9.02 1.825-9.196v-8.36l-.493-.184c-.251-.093-6.263-2.296-15.52-2.296ZM51.588 25.285a24.353 24.353 0 0 1-1.969-3.913h1.969v3.913Zm0-4.16H49.52c-.024-.064-.052-.125-.076-.189a.398.398 0 0 0-.003-.01v-.048h2.147v.247Zm0-3.05h-3.045l-.075-.298h3.12v.298Zm0-.58H48.4l-.07-.297h3.258v.297Zm6.511 6.428v8.01l-.247-.166v-7.72l-.309-.063v7.57c-.083-.058-.166-.117-.247-.176v-7.444l-.674-.135h1.23c.32 0 .58-.139.58-.457 0-.32-.26-.456-.58-.456h-1.477c-.319 0-.58.137-.58.456l-.001.001h.001c0 .32.261.456.58.456v6.876a22.56 22.56 0 0 1-.247-.201v-6.551a.582.582 0 0 1-.58-.58c0-.32.261-.58.58-.58h1.971c.32 0 .58.26.58.58 0 .319-.26.58-.58.58Zm4.286 6.872h-.388v.777h.388v2.44h-.013a15.91 15.91 0 0 1-2.294-.936v-4.72h2.307v2.44Zm0-2.748H59.77v4.87a19.128 19.128 0 0 1-.247-.132V27.8h2.863v.247Zm0-1.32h-2.307v-2.828h2.307v2.827Zm0-3.137H59.77v3.136h-.247v-3.383h2.863v.247Zm3.382 9.456v.03c-.721.36-1.49.68-2.295.935h-.013v-2.439h.389v-.777h-.389v-2.439h2.308v4.69Zm.556-.26a20.56 20.56 0 0 1-.247.131v-4.87h-2.617V27.8h2.864v4.985Zm-2.864-6.06V23.9h2.308v2.827h-2.308Zm2.864 0h-.247V23.59h-2.617v-.247h2.864v3.383Zm3.394-2.803v6.55c-.081.068-.163.135-.247.203v-6.877c.319 0 .58-.136.58-.455h.001l-.001-.002c0-.319-.261-.456-.58-.456h-1.477c-.32 0-.58.137-.58.456s.26.457.58.457h1.23l-.674.136v7.444c-.08.058-.164.117-.247.175v-7.57l-.31.062v7.721c-.081.056-.163.11-.246.166v-8.01a.582.582 0 0 1-.58-.58c0-.319.26-.58.58-.58h1.97c.32 0 .58.261.58.58 0 .319-.26.58-.58.58Zm2.099-2.11H54.029v-.935h17.787v.934Zm-17.787-2.098v-.083h.63l.034.033v.12h-.085v.276h-.45l-.051-.204v-.086l-.078-.056Zm1.317 0v-.083h.63l.034.033v.12h-.084v.276h-.452l-.05-.204v-.086l-.078-.056Zm1.317 0v-.083h.63l.034.033v.12h-.084v.276h-.452l-.05-.204v-.086l-.078-.056Zm1.317 0v-.083h.63l.035.033v.12h-.085v.276h-.452l-.05-.204v-.086l-.078-.056Zm1.317 0v-.083h.63l.035.033v.12h-.085v.276H59.4l-.025-.204v-.086l-.078-.056Zm1.317 0v-.083h.63l.035.033v.12h-.085v.276h-.477l-.025-.204v-.086l-.078-.056Zm1.317 0v-.083h.63l.035.033v.12h-.085v.276h-.502v-.29l-.078-.056Zm1.317.07v-.12l.035-.033h.63v.083l-.078.056v.29h-.502v-.276h-.085Zm1.317 0v-.12l.035-.033h.63v.083l-.078.056v.085l-.025.205h-.477v-.276h-.085Zm1.317 0v-.12l.035-.033h.63v.083l-.078.056v.085l-.025.205h-.477v-.276h-.085Zm1.318 0v-.12l.034-.033h.63v.083l-.078.056v.085l-.05.205h-.451v-.276H67.2Zm1.317 0v-.12l.034-.033h.63v.083l-.078.056v.085l-.05.205h-.451v-.276h-.085Zm1.317 0v-.12l.034-.033h.63v.083l-.078.056v.085l-.05.205h-.451v-.276h-.085Zm1.317 0v-.12l.034-.033h.63v.083l-.078.056v.085l-.05.205h-.451v-.276h-.085Zm-8.23-.414h-8.893l8.894-4.543 8.893 4.543h-8.893Zm9.102-.587-9.101-4.65-9.101 4.65v-.347l9.1-4.65 9.102 4.65v.347Zm1.328-5.553H52.493v-.934H73.35v.934Zm.905 12.053v-3.811h1.928a24.32 24.32 0 0 1-1.928 3.81Zm2.147-4.359-.004.01c-.03.082-.064.16-.096.24h-2.047v-.297h2.147v.047Zm.898-2.85h-3.045v-.298h3.12l-.075.298Zm.143-.58h-3.188v-.298h3.257l-.069.298Zm.733-5.486c0 .108-.004 1.838-.481 4.31h-3.44v-4.927H51.588v4.928h-3.44c-.477-2.473-.481-4.203-.481-4.311V4.174s6.028-2.249 15.255-2.249c9.226 0 15.255 2.249 15.255 2.249v7.835Z" fill="#fff"/><path d="M62.922.41c-9.392 0-15.528 2.247-15.784 2.343l-.987.368v8.888c0 .178.01 4.511 1.875 9.462 1.115 2.957 2.665 5.565 4.608 7.75.285.333 3.746 4.285 8.756 6.06l1.532.553 1.533-.553c2.211-.88 5.676-2.633 8.756-6.06 2.756-3.066 3.98-6.086 4.608-7.75 1.865-4.95 1.875-9.284 1.874-9.466V3.121l-.986-.368C78.451 2.658 72.314.41 62.923.41Zm16.013 3.764v7.833c0 .177-.008 4.376-1.826 9.197-1.082 2.872-2.586 5.402-4.47 7.519-.23.27-3.808 4.393-8.942 6.014l-.775.224-.774-.224c-5.135-1.622-8.714-5.746-8.943-6.014-1.883-2.117-3.387-4.646-4.47-7.52-1.817-4.82-1.826-9.02-1.826-9.194V3.647l.493-.184c.252-.093 6.263-2.296 15.52-2.296s15.269 2.203 15.52 2.296l.493.184v.527Z" fill="#C10230"/><path d="M67.285 20.062h.451l.05-.204v-.086l.078-.056v-.083h-.63l-.034.033v.12h.085V20.062ZM68.602 20.062h.451l.051-.204v-.086l.078-.056v-.083h-.63l-.035.033v.12h.085V20.062ZM65.968 20.062h.477l.025-.204v-.086l.078-.056v-.083h-.63l-.035.033v.12h.085V20.062ZM69.919 20.062h.451l.05-.204v-.086l.079-.056v-.083h-.63l-.035.033v.12h.085V20.062ZM60.717 20.062h.477V19.786h.085v-.12l-.035-.033h-.63v.083l.078.056v.086l.025.204ZM63.334 20.062h.501v-.29l.078-.056v-.083h-.63l-.035.033v.12h.086V20.062ZM62.01 20.062h.501V19.786h.085v-.12l-.034-.033h-.63v.083l.077.056v.29ZM49.44 20.926l.005.01c.024.064.05.125.075.189h2.068v-.247h-2.147v.048ZM59.4 20.062h.477V19.786h.085v-.12l-.034-.033h-.63v.083l.077.056v.086l.025.204ZM52.493 12.298v.934h20.859v-.934H52.493ZM54.029 19.372h17.787l-8.894-4.544-8.893 4.544Zm8.893-.741h-5.814l5.814-2.97 5.815 2.97h-5.815ZM71.236 20.062h.452l.05-.204v-.086l.078-.056v-.083h-.63l-.035.033v.12h.085V20.062Z" fill="#0A2240"/><path d="M53.82 18.438v.346l9.102-4.65 9.102 4.65v-.346l-9.102-4.65-9.101 4.65ZM64.65 20.062h.477l.025-.204v-.086l.078-.056v-.083h-.63l-.035.033v.12h.085V20.062ZM48.543 18.076h3.045v-.298h-3.12l.075.298ZM51.588 25.285v-3.913h-1.969a24.332 24.332 0 0 0 1.969 3.913ZM74.257 21.176h2.047c.031-.08.066-.159.096-.24l.004-.01v-.048h-2.147v.298ZM74.257 25.285a24.295 24.295 0 0 0 1.928-3.811h-1.928v3.81ZM74.257 18.076h3.045l.075-.298h-3.12v.298ZM74.257 17.496h3.188l.069-.298h-3.257v.298ZM58.458 8.144a2.227 2.227 0 0 0-.348.497 3.172 3.172 0 0 0-.317 1.161c-.017.202-.014.445.044.64.046.156.102.022.147-.174.027-.113.042-.229.061-.343.068-.394.128-.705.281-1.07.083-.197.18-.385.296-.563.055-.083.12-.159.174-.242.045-.07.064-.14.036-.166-.054-.05-.35.234-.375.26ZM48.4 17.496h3.188v-.298h-3.257c.022.098.045.198.07.298H48.4ZM60.44 7.103a1.72 1.72 0 0 0-.22.307c-.27.457-.413.985-.486 1.513a6.911 6.911 0 0 0-.02.167c-.041.359-.048.736.038 1.089.021.087.044.134.067.133.102-.005.11-.768.298-1.668.096-.449.216-.846.316-1.131.048-.144.092-.258.117-.341.026-.083.035-.134.016-.148-.018-.014-.065.013-.127.079Z" fill="#0A2240"/><path d="M47.667 4.173v7.836c0 .109.004 1.839.481 4.311h3.44v-4.928h22.669v4.928h3.44c.476-2.472.48-4.202.48-4.311V4.173s-6.029-2.248-15.255-2.248-15.255 2.248-15.255 2.248Zm22.954 6.752c-.99-1.183-2.08-2.244-3.28-3.044-1.37-.914-2.881-1.451-4.414-1.438v3.822c2.514.17 5.197.397 6.726.66l-13.196-.004-1.234.004c.717-1.265 1.693-2.341 2.705-3.186 2.528-2.108 5.661-2.579 8.45-1.055 1.621.885 3.193 2.385 4.243 4.24Zm-2.604-.482c-.046.155-.102.02-.148-.175-.026-.114-.041-.229-.06-.343-.068-.394-.128-.705-.281-1.07a3.498 3.498 0 0 0-.297-.563c-.054-.083-.12-.159-.173-.242-.045-.07-.064-.14-.036-.166.054-.05.35.234.374.26.136.148.255.316.348.497a3.172 3.172 0 0 1 .317 1.161c.017.202.014.445-.044.64Zm-1.915-.264c-.021.086-.044.133-.067.133-.102-.005-.11-.768-.299-1.668a9.506 9.506 0 0 0-.315-1.131c-.049-.144-.093-.258-.117-.342-.026-.083-.035-.133-.016-.147.018-.014.065.013.127.078.061.066.14.17.22.307.27.458.412.986.485 1.513.008.056.015.112.02.167.041.36.048.737-.038 1.09Zm-1.681-1.1c0 .108-.003.21-.006.307a6.207 6.207 0 0 1-.038.384 2.479 2.479 0 0 1-.06.267c-.028.09-.059.138-.09.137-.03-.001-.058-.052-.083-.142a1.623 1.623 0 0 1-.035-.162l-.032-.214a7.011 7.011 0 0 1-.031-.257 8.867 8.867 0 0 1-.035-.294c-.01-.103-.026-.211-.037-.323-.013-.112-.03-.228-.042-.347-.062-.472-.129-.898-.176-1.21a4.284 4.284 0 0 1-.044-.376c-.005-.091.003-.147.031-.16.028-.014.075.021.131.097.055.076.121.194.185.346.128.303.25.745.315 1.242.013.125.027.246.034.364.006.118.013.232.013.34Zm1.195-3.21a6.955 6.955 0 0 0-2.694-.551c-.982 0-1.883.212-2.694.55.1-.22.334-.516.886-.73 0 0 .658-.247 1.808-.247s1.808.248 1.808.248c.552.213.786.51.886.73Zm-.9-.949c-.086-.03-.728-.243-1.794-.243s-1.708.213-1.794.243c.151-.369.689-.615.689-.615l1.105-.529 1.105.529s.537.246.689.615ZM58.109 20.062h.451V19.786h.085v-.12l-.034-.033h-.63v.083l.077.056v.086l.05.204Z" fill="#0A2240"/><path d="M61.98 6.786c-.055.076-.12.194-.184.346-.13.303-.25.744-.315 1.242-.014.124-.028.246-.035.364-.006.118-.013.232-.013.34 0 .109.003.212.006.308a6.058 6.058 0 0 0 .038.384 2.332 2.332 0 0 0 .06.267c.028.09.059.138.09.137.03-.001.058-.052.083-.142.012-.045.024-.1.034-.162l.033-.214c.011-.079.021-.165.031-.257.012-.092.024-.19.035-.294.01-.103.026-.212.037-.324.012-.112.03-.227.042-.346.061-.473.128-.898.175-1.21.023-.156.04-.284.045-.376.005-.091-.004-.147-.032-.16-.028-.014-.074.02-.13.097ZM62.922 4.447c.358 0 .67.023.931.056 0-.028-.219-.132-.219-.132l-.712-.34v.416ZM63.521 23.9h-.062v2.827h2.308v-2.828H63.52ZM54.029 20.878v.934h17.787v-.934H54.029Z" fill="#0A2240"/><path d="M63.46 23.59h2.616v3.137h.247v-3.383H63.46v.247ZM56.791 20.062h.452V19.786h.085v-.12l-.035-.033h-.63v.083l.078.056v.086l.05.204ZM54.157 20.062h.451V19.786h.086v-.12l-.035-.033h-.63v.083l.078.056v.086l.05.204ZM55.474 20.062h.452V19.786h.085v-.12l-.035-.033h-.63v.083l.078.056v.086l.05.204ZM60.078 28.356v4.72c.721.36 1.489.68 2.295.935h.013v-2.439h-.389v-.777h.389v-2.439h-2.308Z" fill="#0A2240"/><path d="m59.522 32.786.247.131v-4.87h2.616v-.246h-2.863v4.985ZM63.46 28.048h2.616v4.87l.247-.132V27.8H63.46v.247Z" fill="#0A2240"/><path d="M63.46 28.357v2.439h.388v.777h-.389v2.439h.013a15.899 15.899 0 0 0 2.295-.936v-4.72H63.46ZM60.078 23.9v2.827h2.307v-2.828h-2.307Z" fill="#0A2240"/><path d="M59.522 26.727h.247V23.59h2.616v-.246h-2.863v3.383Z" fill="#0A2240"/><path d="M57.108 18.631H68.737l-5.815-2.97-5.814 2.97ZM57.928 7.74c-1.012.844-1.987 1.92-2.705 3.185l1.234-.003 13.196.003c-1.528-.263-4.212-.489-6.726-.66V6.443c1.533-.013 3.044.523 4.415 1.438 1.199.8 2.288 1.86 3.28 3.044-1.052-1.856-2.623-3.356-4.243-4.24-2.79-1.524-5.923-1.054-8.45 1.054Zm.868.31c-.054.084-.119.159-.173.242a3.497 3.497 0 0 0-.296.563c-.154.365-.214.676-.281 1.07-.02.115-.035.23-.061.343-.046.196-.102.33-.148.175a1.812 1.812 0 0 1-.043-.64v-.004c.04-.41.131-.793.317-1.158.092-.181.21-.35.347-.497.024-.026.32-.31.374-.26.029.027.01.096-.036.166Zm1.754-.879c-.024.084-.068.198-.117.342-.1.285-.22.682-.315 1.131-.189.9-.197 1.663-.299 1.668-.023 0-.045-.046-.067-.133-.085-.353-.079-.73-.039-1.09a6.45 6.45 0 0 1 .021-.167c.073-.527.216-1.055.486-1.512.08-.139.158-.242.22-.308.062-.065.108-.092.127-.078.018.014.01.064-.017.147Zm1.592-.322c-.004.092-.022.22-.044.376-.047.311-.114.737-.176 1.21-.012.119-.03.234-.042.346-.01.113-.026.22-.037.324-.01.103-.022.201-.035.293l-.03.258-.033.214c-.01.063-.022.117-.035.162-.024.09-.053.14-.083.142-.031.001-.061-.047-.09-.137a1.614 1.614 0 0 1-.041-.164l-.02-.104a5.888 5.888 0 0 1-.037-.384 10.06 10.06 0 0 1-.005-.307c0-.109.006-.222.012-.34.007-.118.022-.24.035-.364.065-.498.186-.94.315-1.242.063-.152.129-.27.184-.346.056-.077.103-.111.131-.098.028.014.036.07.032.161Z" fill="#fff"/><path d="M61.114 5.139c-.552.213-.786.51-.886.73a6.953 6.953 0 0 1 2.694-.55c.982 0 1.883.211 2.695.55-.1-.22-.335-.517-.887-.73 0 0-.657-.247-1.808-.247-1.15 0-1.808.247-1.808.247Z" fill="#fff"/><path d="M61.817 4.305s-.537.246-.689.615c.086-.03.728-.243 1.794-.243 1.067 0 1.709.213 1.794.243-.15-.369-.689-.615-.689-.615l-1.104-.529-1.105.529Zm1.817.066s.219.104.22.132a7.554 7.554 0 0 0-.932-.055V4.03l.712.34ZM67.744 8.641a2.23 2.23 0 0 0-.347-.497c-.025-.026-.32-.31-.375-.26-.028.026-.01.096.036.166.054.083.119.159.173.242.117.178.214.366.297.563.153.365.213.676.28 1.07.02.115.035.23.061.343.046.196.102.33.148.175.058-.196.062-.439.044-.641v-.003a3.17 3.17 0 0 0-.317-1.158ZM64.058 7.132a1.787 1.787 0 0 0-.184-.346c-.056-.076-.103-.111-.13-.098-.029.014-.037.07-.032.161.003.093.022.22.044.376.047.311.114.737.176 1.21.012.12.03.234.041.346.012.113.027.22.038.324.01.103.022.202.034.294.01.092.02.178.031.257l.033.214c.01.063.022.118.034.162.025.09.053.14.084.142.03.001.061-.047.09-.137a1.583 1.583 0 0 0 .06-.267l.014-.117c.009-.081.017-.17.023-.267.004-.096.006-.2.006-.308 0-.108-.007-.222-.012-.34-.007-.118-.022-.24-.035-.364a4.946 4.946 0 0 0-.315-1.242ZM65.634 7.41a1.716 1.716 0 0 0-.22-.307c-.061-.066-.108-.093-.126-.079-.019.014-.01.065.016.147.025.084.068.198.117.342.1.285.22.682.315 1.131.19.9.197 1.663.299 1.668.023 0 .046-.046.067-.133.085-.353.079-.73.039-1.09a6.036 6.036 0 0 0-.021-.166c-.073-.528-.216-1.056-.486-1.513Z" fill="#fff"/><path d="M58.1 22.763h-1.972a.582.582 0 0 0-.58.58c0 .319.261.58.58.58v6.55c.081.067.163.135.247.202V23.8c-.319 0-.58-.137-.58-.456h-.001l.001-.001c0-.319.261-.456.58-.456h1.478c.318 0 .58.137.58.456 0 .318-.262.457-.58.457h-1.23l.673.136v7.443c.08.059.164.117.247.176v-7.57l.31.062v7.721c.081.056.163.11.246.166v-8.01c.32 0 .58-.261.58-.58a.582.582 0 0 0-.58-.58ZM69.717 22.763h-1.971c-.32 0-.58.26-.58.58 0 .319.26.58.58.58v8.01c.083-.055.165-.11.246-.166v-7.72l.31-.063v7.57c.083-.058.166-.117.247-.176v-7.444l.674-.135h-1.23c-.32 0-.58-.139-.58-.457 0-.32.26-.456.58-.456h1.477c.319 0 .58.137.58.456l.001.001h-.001c0 .32-.261.456-.58.456v6.876c.084-.067.166-.135.247-.201v-6.551c.319 0 .58-.261.58-.58 0-.32-.261-.58-.58-.58Z" fill="#0A2240"/></g><defs><clipPath id="a"><path fill="#fff" transform="translate(0 .41)" d="M0 0h125.847v60H0z"/></clipPath></defs></svg>