<svg width="109" height="120" fill="none" xmlns="http://www.w3.org/2000/svg"><g clip-path="url(#a)"><path d="m67.548.21-.804.347.038-.007-.023.012.017-.007-.06.037.088-.049c-1.722.754-1.998 3.663-2.041 4.61-6.634.213-13.154 1.93-13.446 2.008-7.519 2.105-12.102 4.567-13.82 5.593-2.906-.961-5.132-2.119-7.757-3.671l.038.023c-4.192-2.668-7.598-3.282-7.973-3.343l-.044-.007c-3.56-.462-5.748 1.76-5.971 1.999-1.842 1.868-2.042 4.27-2.042 5.216.003.118.284 7.976 4.246 13.939-3.642 4.89-6.586 9.974-8.731 15.088l.032-.072C3.677 53.38.609 64.38.177 74.616L0 78.833l5.01-6.5c1.38 12.703 7.18 29.452 25.67 43.202l6.005 4.466-4.093-6.285c-.032-.048-2.196-3.433-2.196-7.294 0-1.317.27-2.687.945-4.001 14.931 8.377 35.536 12.636 61.308 12.636h5.19l-4.543-2.511c-.145-.081-13.487-7.558-18.755-18.122 9.247 2.668 17.812 2.958 18.207 2.97l5.676.166-5.004-2.685c-9.938-5.333-15.936-11.543-17.86-18.462.443-.68.933-1.35 1.459-2.008 1.539.339 4.723.79 7.258-.523l-.192.082c6.806-2.27 8.047-10.153 8.097-10.487l.059-.398-.17-.365a8.69 8.69 0 0 0-.596-1.044c1.253-1.791 1.902-3.871 1.902-6.192 0-1.188-.173-2.437-.514-3.712l-.187-.569-1.387-4.233-1.175 4.394-.124.428-.021.08c-.028.127-.705 2.987-2.707 4.594-1.454-2.7-1.931-5.104-1.931-7.072 0-2.006.484-3.547.9-4.514 1.031.1 4.985.478 4.985.478 5.194.496 8.229-1.685 9.698-3.222l.193-.065c1.984-.733 3.168-2.068 3.179-2.082 2.662-2.89 4.023-6.134 4.023-9.619 0-2.319-.607-4.675-1.783-7.005-1.408-6.605-6.599-8.714-8.241-9.22-.004 0-.146-.047-.285-.092-2.073-1.472-4.364-2.355-5.585-2.76-4.15-3.68-11.065-4.516-13.94-4.705-.411-.316-1.865-1.642-3.08-2.782l.037.036c-2.38-2.413-4.52-3.348-5.12-3.576l.042.022-.192-.084-.036-.001-.164-.037.087.022-.598-.133-.57-.045a3.641 3.641 0 0 0-1.334.208l.001-.001Zm-.028.008-.033.013.039-.014-.006.001Z" fill="#fff"/><path d="M105.256 23.795c-1.22-6.09-5.992-7.961-7.404-8.388-.15-.052-.3-.102-.457-.15l-.104-.074c-1.97-1.415-4.194-2.263-5.346-2.642l-.209-.068-.166-.15c-3.872-3.473-10.563-4.24-13.26-4.411l-.303-.019-.25-.176c-.563-.403-2.83-2.522-3.277-2.941-2.246-2.277-4.26-3.12-4.644-3.266-.011-.005-.025-.007-.037-.01l-.027-.012c-.033-.01-.062-.013-.097-.021a3.11 3.11 0 0 0-.416-.094h-.005a2.858 2.858 0 0 0-.38-.03 2.34 2.34 0 0 0-.89.133c-.287.092-.469.197-.487.208l-.067.042-.086.041c-.829.359-1.236 2.402-1.25 3.671l-.012 1.032c-6.967 0-14.42 1.985-14.42 1.985-7.494 2.099-12 4.555-13.589 5.513l-.414.25-.463-.15c-3.088-1.008-5.401-2.214-8.137-3.833-4.05-2.577-7.332-3.128-7.47-3.151-2.962-.384-4.765 1.522-4.84 1.604-1.503 1.518-1.662 3.5-1.662 4.283.001.05.256 7.683 4.128 13.366l.405.597-.526.74c-3.746 5.029-6.56 9.989-8.596 14.842-4.228 8.619-8.473 20.1-8.981 32.157l4.537-5.889c.704 13.44 5.988 31.222 25.426 45.676-.008 0-4.983-7.719-.625-13.841 12.831 7.532 32.291 13.098 61.795 13.098 0 0-16.098-8.884-20.472-21.431 10.17 3.463 20.61 3.769 20.61 3.769-12.452-6.682-17.222-13.91-18.685-19.874a27.368 27.368 0 0 1 2.405-3.287s4.209 1.325 7.154-.2c6.104-2.037 7.196-9.413 7.196-9.413a7.76 7.76 0 0 0-.578-.993l-.435-.618.442-.614c1.163-1.601 1.752-3.478 1.752-5.579 0-1.073-.158-2.205-.469-3.366a5.48 5.48 0 0 0-.15-.451c-.044.162-.089.33-.143.498-.099.44-.923 3.8-3.493 5.609l-.956.672-.575-1.021c-4.645-8.274-.713-14.178-.543-14.427l.355-.516s3.562.411 8.17-.192c-1.438 1.184-2.89 1.735-2.89 1.735 4.887.467 7.607-1.669 8.834-3.054.164-.054.327-.108.491-.164 1.591-.589 2.599-1.687 2.61-1.699 2.453-2.664 3.691-5.597 3.691-8.737 0-2.162-.577-4.372-1.714-6.569h-.001Z" fill="#0A2240"/><path d="M92.354 15.913a20.672 20.672 0 0 0-2.512-.93s-7.329-5.333-16.357-2.597c0 0 1.343-1.328 3.18-1.986-1.424-.595-7.484-.968-7.484-.968-9.196-.773-17.117 1.531-17.117 1.531-7.367 2.155-10.867 3.943-12.333 4.849 2.607 1.193 8.984 2.133 8.984 2.133-7.089 2.169-15.58-1.979-15.57-1.98-1.995-.847-5.77-3.087-5.77-3.087-3.276-2.085-5.928-2.63-6.229-2.69a2.69 2.69 0 0 0-2.13.663c-.722.73-.792 1.742-.794 2.082.017.392.361 6.915 3.58 11.64l.681 1c.846 1.144 2.663 3.268 5.55 5.005 0 0-2.896-.564-5.395-2.247-.464.473-1.053 1.277-1.13 1.356-7.395 9.97-11.5 20.405-12.194 31.022-.002.031-.028.388-.028 1.014 0 1 .068 2.694.397 4.853 2.863-17.914 15.64-21.857 15.64-21.857-14.214 26.76 2.508 49.49 3.623 50.957-1.174-4.638-2.582-16.142 7.56-28.166 0 0-.924 12.742 6.743 26.208-5.527-13.669-1.529-24.226 3.959-31.428-9.945-4.694-13.001-11.905-11.92-18.545-2.51 1.888-3.86 5.047-3.86 5.047.183-18.218 15.894-24.419 15.894-24.419a49.055 49.055 0 0 0-5.396 9.094c-2.893 7.16-3.528 16.8 9.758 22.209-1.796-5.354-2.796-14.325 5.267-23.22 0 0-4.55 9.459-1.004 21.281 2.443-1.817 4.185-2.743 4.185-2.743s3.5 15.847 15.1 18.56l.01-.011c.671.188 1.373.33 2.11.415l.018.007h.023c1.448.165 3.018.118 4.72-.21l.324-.095.233-.079c.083-.027.16-.063.238-.093l.054-.021a6.294 6.294 0 0 0 1.96-1.224 7.093 7.093 0 0 0 .44-.436 7.938 7.938 0 0 0 1.227-1.73c.366-.67.623-1.323.803-1.876-21.489 3.743-23.46-22.134-23.46-22.134 1.526 3.87 3.184 6.918 4.856 9.319l-.001-.001c-3.713-13.648 3-20.576 5.402-22.545l.162-.348c-4.255 1.72-6.553 3.576-6.553 3.576 2.15-2.292 4.396-3.943 6.623-5.114-.131-.358-.186-.58-.186-.58a5.274 5.274 0 0 1-.121-1.015c-4.559 1.77-7.023 3.764-7.023 3.764 2.374-2.534 4.863-4.275 7.32-5.458.06-.154.126-.297.195-.431-2.124-.394-7.18-.746-15.119 2.043 0 0 1.981-1.497 5.252-2.982-3.268-.65-5.621-2.197-5.448-3.716.04-.357.223-.682.51-.973a80.932 80.932 0 0 0-7.365.01s10.932-5.236 27.095.631c1.954-1.424 6.133-3.527 12.823-2.334Z" fill="#C10230"/><path d="M65.59 21.02c-.425-.343-.69-.821-.69-1.35 0-.604.343-1.139.875-1.484-.676-.105-1.397-.2-2.16-.285-.664.235-1.097.595-1.147 1.04-.096.856 1.26 1.73 3.122 2.078ZM70.376 19.833a.838.838 0 0 0-.07-.426 1.301 1.301 0 0 0-.078-.272 33.834 33.834 0 0 0-2.032-.503 1.277 1.277 0 0 0 .404 2.18c.478-.152.97-.296 1.476-.43.168-.163.277-.346.3-.55ZM98.162 37.358s0 3.128-2.958 5.262c0 0 2.684-.18 4.718-3.142 0 0 .33-.943-1.76-2.12ZM80.855 31.924s2.165 4.256-.387 9.213c0 0 3.7-2.397 4.42-8.095 0 0-.375-.96-4.033-1.118Z" fill="#fff"/><path d="M26.463 15.716c-4-2.716-5.297-2.555-5.297-2.555.502 6.196 2.72 9.532 3.744 10.758 0 0-.913-2.733-.913-5.163 0 0 2.233 3.363 4.882 5.214-.27-.966-.708-2.793-.708-4.473 0 0 2.13 3.207 4.699 5.08 2.022-.513 4.376-1.55 7.002-3.455-3.571-.804-7.716-1.658-13.409-5.405Z" fill="#0A2240"/><path d="M85.993 59.97s3.087-.515 4.705-3.787c0 0 .263 2.675-2.325 5.17 0 0-.873.483-2.38-1.383ZM103.798 34.988a.94.94 0 0 1 .009-.02c.565-2.655-.696-5.21-.696-5.21.732.733 1.189 1.58 1.476 2.36.046-.52.054-1.076.003-1.678-.067-1.251-.431-2.402-.905-3.4-2.096 2.953-5.013 3.833-5.013 3.833-.002 0-.002 0-.002.002 0 0 .726 3.586 2.856 6.77 0 0 .523-.317 1.14-.998.714-2.521-.541-5.062-.541-5.062 1.1 1.098 1.515 2.481 1.672 3.403h.001Z" fill="#fff"/><path d="M93.648 16.533c-1.046.024-2.265.287-3.218 1.015 2.487.357 4.912 1.481 6.909 3.879a.408.408 0 0 1 .183-.112l.001.002.023-.007c.049-.013.097-.027.16-.027l.043.003c.698.036 1.255.939 1.255 2.05 0 1.005-.456 1.84-1.059 2.019-.118 1.236-.441 2.616-1.061 4.155 0 0 2.626.26 4.661-2.334a.433.433 0 0 1-.22-.073c-.312-.228-.229-.873.186-1.437.391-.533.929-.799 1.251-.643.183-.453.352-.947.497-1.493 0 0-1.043-6.503-9.611-6.996ZM68.299 89.886s-3.586 7.095-.686 15.014c0 0-15.51-11.267-9.037-36.255 0 0-12.242 10.102-10.947 33.422.047.859.11 1.733.194 2.627.67.214 1.35.419 2.035.621 9.327 2.744 20.153 4.418 32.437 5.01-5.737-4.714-12.42-11.853-13.997-20.439Z" fill="#C10230"/><path d="M78.437 53.343C76.278 46.76 71.28 43.8 71.28 43.8c-1.543 4.056-.81 8.084-.81 8.079 2.03 1.993 3.944 3.198 5.464 3.924 1.056-.657 1.876-1.544 2.503-2.46v-.001ZM80.726 51.275c.277 2.413-.134 4.346-.751 5.813 2.417.626 3.559.533 3.559.533.272-2.808-1.288-4.952-2.809-6.346ZM79.854 50.547c-.982-.75-1.774-1.142-1.774-1.142.435 1.095.72 2.121.91 3.044.379-.683.662-1.346.864-1.901ZM74.123 57.925s3.501-.585 5.338-4.299c0 0 .301 3.038-2.636 5.866 0 0-.991.55-2.702-1.567ZM94.008 20.526c-.523-.287-7.067-3.677-14.803 1.46 7.348-1.656 13.364.849 13.364.849-6.54-.539-11.97.397-16.114 1.7a3.049 3.049 0 0 0-.096 1.516c8.858-3.625 16.918-.27 16.918-.27-6.626-.546-12.111.423-16.275 1.752.914 1.59 2.928 3.729 7.105 3.503 0 0 9.336.343 11.26-3.786.01-.026.013-.049.023-.075.219-.524.413-1.098.536-1.69.365-1.753.11-3.665-1.919-4.96Z" fill="#fff"/><path d="M71.226 88.288c2.626 1.02 5.353 1.804 7.953 2.4-3.569-3.388-5.835-6.779-7.214-9.981a17.251 17.251 0 0 0-.738 7.581Z" fill="#C10230"/><path d="M100.886 113.01h-.64v2.046h-.595v-2.046h-.647v-.506h1.882v.506ZM102.738 115.056h-.409l-.621-2.08h-.007v2.08h-.503v-2.552h.934l.446 1.529.469-1.529h.934v2.552h-.596v-2.08h-.014l-.633 2.08Z" fill="#fff"/></g><defs><clipPath id="a"><path fill="#fff" d="M0 0h108.309v120H0z"/></clipPath></defs></svg>